<?xml version="1.0" standalone="no"?>
<!DOCTYPE svg PUBLIC "-//W3C//DTD SVG 20010904//EN"
 "http://www.w3.org/TR/2001/REC-SVG-20010904/DTD/svg10.dtd">
<svg version="1.0" xmlns="http://www.w3.org/2000/svg"
 width="558.000000pt" height="558.000000pt" viewBox="0 0 558.000000 558.000000"
 preserveAspectRatio="xMidYMid meet">
<metadata>
Created by potrace 1.11, written by Peter Selinger 2001-2013
</metadata>
<g transform="translate(0.000000,558.000000) scale(0.100000,-0.100000)"
fill="#FFFFFF" stroke="none">
<path d="M1665 4591 l-50 -7 75 -6 c41 -4 165 -12 274 -18 110 -6 218 -15 240
-20 23 -5 104 -17 181 -26 133 -15 236 -33 317 -55 25 -6 41 -18 50 -37 16
-34 48 -39 73 -12 58 64 118 -32 146 -235 6 -44 16 -83 22 -87 7 -5 248 -8
536 -7 l524 0 229 -223 c131 -127 241 -242 256 -268 31 -54 72 -101 247 -280
186 -192 255 -270 255 -291 0 -11 -14 -25 -32 -35 -18 -9 -67 -41 -109 -70
-143 -100 -222 -185 -233 -250 -9 -51 -33 -109 -86 -214 -51 -99 -52 -105 -21
-142 22 -26 28 -23 36 20 6 36 25 74 139 277 31 55 56 109 56 121 0 32 37 99
69 127 17 14 79 48 138 77 158 75 158 75 158 87 0 10 -434 465 -881 923 -88
91 -177 183 -197 205 l-35 40 -509 5 -508 5 -1 45 c-1 58 -11 94 -42 150 -58
105 -74 115 -134 84 -35 -18 -41 -14 -58 39 -6 21 -22 44 -33 51 -17 11 -123
17 -472 25 -472 12 -539 12 -620 2z"/>
<path d="M1465 4563 c-353 -73 -464 -105 -616 -175 -226 -105 -322 -243 -259
-372 32 -67 102 -138 280 -286 93 -77 185 -159 204 -182 19 -24 43 -53 53 -65
12 -15 22 -20 31 -14 18 11 2 72 -36 132 -16 25 -34 61 -41 80 -8 25 -25 42
-62 64 -83 49 -241 162 -287 207 -106 102 -99 183 22 280 98 78 380 208 591
272 118 36 145 47 145 57 0 5 -1 8 -2 8 -2 -1 -12 -3 -23 -6z"/>
<path d="M1382 4021 c-23 -4 -49 -16 -57 -27 -26 -32 -54 -91 -48 -98 4 -3 24
-6 45 -6 49 0 108 -24 108 -45 0 -8 -13 -42 -30 -75 -20 -40 -30 -74 -30 -105
0 -54 -10 -75 -59 -131 -20 -22 -52 -60 -71 -85 -19 -24 -44 -53 -56 -64 -31
-30 -64 -81 -64 -98 0 -9 10 -27 23 -41 24 -28 57 -33 139 -22 26 4 49 2 52
-3 3 -5 -1 -87 -10 -183 -27 -294 -8 -482 66 -636 55 -115 126 -205 281 -357
200 -195 216 -213 239 -259 11 -23 20 -56 20 -72 0 -34 -49 -117 -78 -133 -25
-13 -65 -80 -58 -97 3 -7 26 -15 53 -19 109 -14 123 -17 123 -29 0 -7 -9 -21
-20 -31 -43 -39 -28 -45 103 -45 105 0 126 3 152 20 17 11 39 25 50 32 11 7
41 29 67 49 26 20 79 46 120 59 40 13 77 28 81 34 4 6 5 81 1 167 -5 114 -3
158 5 163 6 4 99 9 205 11 217 4 248 11 443 99 134 60 226 91 246 83 9 -3 17
-17 17 -30 0 -13 12 -47 26 -76 25 -48 32 -55 118 -98 153 -77 223 -122 280
-184 53 -57 75 -97 62 -117 -3 -5 -26 -15 -51 -21 -39 -10 -49 -17 -61 -46
-25 -61 -26 -60 108 -57 68 2 129 -1 137 -7 21 -14 5 -41 -24 -41 -18 0 -31
-10 -45 -33 -34 -56 -32 -57 105 -57 l125 0 29 51 c16 28 51 100 77 160 27 60
54 109 60 109 19 0 52 -44 88 -120 20 -41 41 -79 46 -84 16 -16 29 4 45 69 32
122 44 256 34 388 -10 128 -39 207 -196 547 -59 126 -122 281 -153 375 -71
217 -101 276 -180 355 -76 76 -170 129 -285 161 -78 22 -94 23 -687 29 l-606
5 -26 24 c-14 13 -33 45 -42 70 -60 167 -136 270 -279 378 -125 95 -352 172
-570 193 -111 11 -131 11 -193 1z"/>
<path d="M3730 1623 c-25 -15 -79 -50 -120 -79 -92 -63 -140 -84 -204 -89 -48
-3 -50 -4 -62 -43 -34 -118 -159 -272 -301 -374 -89 -64 -99 -66 -223 -44 -75
13 -69 0 -96 211 -24 190 -70 297 -122 281 -32 -10 -27 -25 23 -75 50 -50 46
-37 71 -261 9 -85 20 -164 24 -175 6 -16 23 -23 79 -33 39 -6 85 -12 101 -12
94 0 439 227 484 319 7 14 13 44 15 66 1 22 10 51 19 64 21 28 88 67 160 92
84 29 165 77 195 116 49 66 32 81 -43 36z"/>
</g>
</svg>
